<?xml version="1.0" standalone="no"?>
<!DOCTYPE svg PUBLIC "-//W3C//DTD SVG 20010904//EN"
 "http://www.w3.org/TR/2001/REC-SVG-20010904/DTD/svg10.dtd">
<svg version="1.0" xmlns="http://www.w3.org/2000/svg"
 width="91.000000pt" height="91.000000pt" viewBox="0 0 91.000000 91.000000"
 preserveAspectRatio="xMidYMid meet">
<metadata>
Created by potrace 1.14, written by Peter Selinger 2001-2017
</metadata>
<g transform="translate(0.000000,91.000000) scale(0.100000,-0.100000)"
fill="#000000" stroke="none">
<path d="M308 788 c-68 -62 -138 -127 -157 -144 -18 -17 -29 -34 -24 -37 5 -3
75 55 156 129 81 74 150 134 154 134 5 0 110 -92 183 -160 9 -8 40 -36 68 -63
31 -29 53 -43 57 -36 4 6 -8 23 -26 39 -28 23 -34 35 -34 66 0 39 -1 39 -41
39 -36 0 -49 8 -118 70 -43 39 -82 71 -87 73 -4 2 -63 -48 -131 -110z"/>
<path d="M365 792 c-33 -31 -90 -85 -128 -118 -68 -63 -94 -99 -35 -49 26 22
39 26 71 22 124 -17 122 -184 -3 -198 -34 -3 -50 2 -75 26 l-25 26 0 -30 c0
-24 4 -29 16 -24 15 5 15 3 0 -25 -33 -64 -11 -158 43 -186 39 -21 57 -20 71
2 11 16 11 16 6 0 -5 -17 6 -18 138 -18 140 0 144 1 139 20 -5 17 -8 18 -21 8
-14 -11 -15 -10 -8 7 5 11 10 29 13 40 4 17 3 17 -6 5 -10 -13 -13 -13 -25 3
-20 26 -26 21 -26 -20 0 -33 -1 -35 -14 -18 -13 18 -14 18 -23 0 -6 -11 -13
-14 -17 -7 -3 6 -2 13 4 17 5 3 10 11 10 16 0 6 -4 8 -9 4 -5 -3 -12 -1 -15 4
-4 5 7 12 24 16 35 8 39 20 8 28 -18 5 -19 8 -8 21 10 13 10 16 -3 16 -9 0
-21 -9 -27 -20 -6 -11 -15 -20 -21 -20 -6 0 -6 6 0 19 9 16 7 17 -15 13 -14
-2 -31 -17 -40 -33 -8 -16 -17 -29 -20 -29 -3 0 9 27 27 60 l32 60 -23 25
c-23 25 -18 33 10 15 18 -11 41 6 33 26 -6 17 23 19 31 2 3 -7 3 -3 1 9 -3 12
-1 24 5 28 5 3 10 13 10 20 0 12 -10 13 -47 8 -56 -7 -53 12 3 23 41 8 57 -7
49 -43 -6 -26 3 -73 15 -73 4 0 10 9 13 20 5 20 27 28 27 10 0 -5 -4 -10 -9
-10 -13 0 -2 -37 15 -51 11 -9 14 -7 14 10 0 11 -5 21 -11 21 -6 0 -8 9 -4 21
5 14 0 29 -17 46 -16 19 -18 24 -6 20 11 -4 18 1 23 16 7 22 7 22 14 -3 5 -17
9 -21 15 -12 4 6 12 12 18 12 6 0 3 -11 -6 -25 -9 -13 -16 -32 -16 -42 0 -15
1 -15 13 2 15 20 37 13 37 -11 0 -33 20 0 21 34 1 20 3 29 6 20 5 -19 23 -25
23 -8 0 6 7 10 17 10 14 0 14 -2 -3 -21 -19 -21 -19 -21 1 -18 17 4 20 13 21
57 1 52 1 52 -59 105 -33 28 -64 51 -69 49 -4 -1 -8 4 -8 10 0 15 -110 118
-125 118 -5 0 -37 -26 -70 -58z m9 -112 c-16 -26 -44 -48 -44 -34 0 16 36 64
48 64 10 0 9 -7 -4 -30z m153 -38 c-17 -34 -35 -62 -38 -62 -4 0 9 30 28 66
19 36 37 64 39 62 2 -2 -11 -32 -29 -66z m-233 -238 c9 -23 7 -64 -3 -64 -9 0
-21 34 -21 63 0 21 16 22 24 1z m36 -124 c-6 -11 -13 -20 -16 -20 -2 0 0 9 6
20 6 11 13 20 16 20 2 0 0 -9 -6 -20z"/>
<path d="M582 488 c-7 -7 -12 -23 -12 -37 0 -33 21 -13 25 23 4 30 3 30 -13
14z"/>
<path d="M650 488 l-25 -11 23 -5 c18 -3 23 -9 19 -23 -6 -22 5 -25 21 -6 14
16 11 57 -3 56 -5 0 -21 -5 -35 -11z"/>
<path d="M427 448 c4 -7 8 -20 8 -28 0 -9 11 -16 25 -18 22 -2 23 -1 7 9 -18
10 -18 12 -1 30 16 18 16 19 -15 19 -23 0 -30 -3 -24 -12z"/>
<path d="M607 443 c-12 -11 -8 -23 7 -23 7 0 19 7 26 15 10 12 9 15 -7 15 -11
0 -23 -3 -26 -7z"/>
<path d="M493 415 c11 -7 26 -11 34 -8 12 5 12 7 1 14 -7 5 -22 9 -33 9 -19
-1 -19 -1 -2 -15z"/>
<path d="M395 400 c-4 -6 3 -10 14 -10 25 0 27 6 6 13 -8 4 -17 2 -20 -3z"/>
<path d="M673 396 c17 -13 17 -15 -5 -30 l-22 -16 27 0 c25 0 28 3 25 27 -2
19 -10 29 -23 31 -19 3 -19 2 -2 -12z"/>
<path d="M605 390 c3 -5 18 -10 33 -10 21 0 24 2 12 10 -20 13 -53 13 -45 0z"/>
<path d="M494 368 c-18 -20 -18 -21 -1 -15 10 4 22 7 27 7 4 0 10 7 14 15 8
23 -18 18 -40 -7z"/>
<path d="M580 367 c0 -8 9 -22 20 -32 17 -16 20 -16 20 -2 0 14 -25 47 -36 47
-2 0 -4 -6 -4 -13z"/>
<path d="M546 363 c-9 -10 -7 -55 3 -49 12 8 21 45 11 51 -4 2 -10 2 -14 -2z"/>
<path d="M636 329 c9 -16 -18 -30 -33 -17 -10 8 -13 7 -13 -5 0 -8 10 -21 23
-30 12 -8 18 -19 14 -23 -4 -5 -12 -2 -17 6 -7 11 -10 8 -10 -12 0 -19 5 -28
16 -28 22 0 74 55 73 77 0 16 -1 16 -9 -2 l-8 -20 -7 20 c-4 11 -9 26 -11 33
-2 6 -8 12 -14 12 -6 0 -8 -5 -4 -11z"/>
<path d="M190 140 c0 -27 5 -50 10 -50 6 0 10 23 10 50 0 28 -4 50 -10 50 -5
0 -10 -22 -10 -50z"/>
<path d="M236 163 c1 -16 3 -39 3 -52 2 -42 16 -11 16 35 1 25 -4 44 -10 44
-6 0 -10 -12 -9 -27z"/>
<path d="M280 180 c0 -5 5 -10 11 -10 5 0 7 5 4 10 -3 6 -8 10 -11 10 -2 0 -4
-4 -4 -10z"/>
<path d="M15 135 c0 -25 3 -45 7 -45 5 0 9 6 9 13 6 50 4 77 -5 77 -6 0 -11
-20 -11 -45z"/>
<path d="M56 149 c-3 -18 -1 -38 5 -45 17 -21 31 -17 19 6 -6 11 -8 31 -4 45
3 14 2 25 -4 25 -5 0 -12 -14 -16 -31z"/>
<path d="M520 135 c0 -25 5 -45 10 -45 6 0 10 20 10 45 0 25 -4 45 -10 45 -5
0 -10 -20 -10 -45z"/>
<path d="M580 135 c0 -25 5 -45 10 -45 6 0 10 20 10 45 0 25 -4 45 -10 45 -5
0 -10 -20 -10 -45z"/>
<path d="M633 138 c7 -23 19 -44 26 -46 10 -3 12 0 7 14 -4 11 -10 31 -13 47
-3 15 -11 27 -19 27 -10 0 -10 -8 -1 -42z"/>
<path d="M686 165 c-3 -9 -6 -22 -5 -28 0 -7 5 -1 10 12 5 13 8 26 5 28 -2 2
-6 -3 -10 -12z"/>
<path d="M747 135 c15 -45 42 -66 28 -22 -3 12 -9 32 -12 45 -3 12 -11 22 -19
22 -10 0 -10 -9 3 -45z"/>
<path d="M806 159 c-18 -26 -7 -63 20 -67 15 -2 16 -1 5 6 -9 6 -12 22 -9 46
5 42 4 43 -16 15z"/>
<path d="M110 145 c-13 -16 -10 -47 5 -52 6 -2 10 13 10 32 0 40 1 39 -15 20z"/>
<path d="M148 124 c3 -23 8 -32 14 -26 12 12 7 54 -8 59 -6 2 -8 -10 -6 -33z"/>
<path d="M280 125 c0 -19 5 -35 10 -35 6 0 10 16 10 35 0 19 -4 35 -10 35 -5
0 -10 -16 -10 -35z"/>
<path d="M326 128 c2 -44 4 -47 14 -20 5 12 7 29 4 37 -10 26 -20 16 -18 -17z"/>
<path d="M373 125 c1 -19 7 -33 12 -32 6 2 9 15 9 28 -2 36 -3 39 -13 39 -5 0
-9 -16 -8 -35z"/>
<path d="M424 146 c-7 -19 32 -60 42 -44 4 6 -2 17 -12 25 -10 8 -18 19 -16
24 4 15 -8 10 -14 -5z"/>
<path d="M706 114 c-9 -24 -2 -26 12 -4 7 11 8 20 3 20 -5 0 -12 -7 -15 -16z"/>
<path d="M430 30 c0 -5 5 -10 11 -10 5 0 7 5 4 10 -3 6 -8 10 -11 10 -2 0 -4
-4 -4 -10z"/>
<path d="M145 20 c-3 -6 1 -7 9 -4 18 7 21 14 7 14 -6 0 -13 -4 -16 -10z"/>
</g>
</svg>
